<?xml version="1.0" encoding="UTF-8"?>
<svg viewBox="0 0 400 300" xmlns="http://www.w3.org/2000/svg">
  <!-- Background gradient -->
  <defs>
    <linearGradient id="bgGradient" x1="0%" y1="0%" x2="100%" y2="100%">
      <stop offset="0%" stop-color="#1a1a2e" />
      <stop offset="100%" stop-color="#16213e" />
    </linearGradient>
    
    <!-- Glow effect -->
    <filter id="glow" x="-20%" y="-20%" width="140%" height="140%">
      <feGaussianBlur stdDeviation="5" result="blur" />
      <feComposite in="SourceGraphic" in2="blur" operator="over" />
    </filter>
  </defs>
  
  <!-- Background -->
  <rect width="400" height="300" fill="url(#bgGradient)" rx="10" ry="10" />
  
  <!-- Abstract code lines in background -->
  <g opacity="0.15">
    <path d="M30,70 L120,70" stroke="#4cc9f0" stroke-width="2" />
    <path d="M50,90 L180,90" stroke="#4cc9f0" stroke-width="2" />
    <path d="M20,110 L140,110" stroke="#4cc9f0" stroke-width="2" />
    <path d="M270,160 L370,160" stroke="#4cc9f0" stroke-width="2" />
    <path d="M290,180 L380,180" stroke="#4cc9f0" stroke-width="2" />
    <path d="M250,200 L370,200" stroke="#4cc9f0" stroke-width="2" />
  </g>
  
  <!-- Abstract geometric elements -->
  <g opacity="0.8">
    <polygon points="340,50 360,70 340,90 320,70" fill="#4361ee" />
    <circle cx="50" cy="240" r="15" fill="#3a0ca3" />
    <circle cx="350" cy="240" r="15" fill="#7209b7" />
  </g>
  
  <!-- Code bracket design element -->
  <g filter="url(#glow)">
    <path d="M100,120 L60,150 L100,180" stroke="#4cc9f0" stroke-width="4" fill="none" />
    <path d="M300,120 L340,150 L300,180" stroke="#4cc9f0" stroke-width="4" fill="none" />
  </g>
  
  <!-- Main logo text -->
  <g filter="url(#glow)">
    <text x="200" y="160" font-family="Arial, sans-serif" font-weight="bold" font-size="40" text-anchor="middle" fill="#f8f9fa">Dev.Ora</text>
  </g>
  
  <!-- Tagline -->
  <text x="200" y="190" font-family="Arial, sans-serif" font-size="14" text-anchor="middle" fill="#f8f9fa">Professional Website Development</text>
  
  <!-- Bottom border detail -->
  <rect x="130" y="210" width="140" height="2" fill="#4cc9f0" rx="1" ry="1" />
  
  <!-- Abstract nodes connected with lines -->
  <g opacity="0.7">
    <circle cx="130" cy="230" r="3" fill="#4cc9f0" />
    <circle cx="160" cy="230" r="3" fill="#4cc9f0" />
    <circle cx="190" cy="230" r="3" fill="#4cc9f0" />
    <circle cx="220" cy="230" r="3" fill="#4cc9f0" />
    <circle cx="250" cy="230" r="3" fill="#4cc9f0" />
    <circle cx="280" cy="230" r="3" fill="#4cc9f0" />
    
    <line x1="130" y1="230" x2="160" y2="230" stroke="#4cc9f0" stroke-width="1" />
    <line x1="160" y1="230" x2="190" y2="230" stroke="#4cc9f0" stroke-width="1" />
    <line x1="190" y1="230" x2="220" y2="230" stroke="#4cc9f0" stroke-width="1" />
    <line x1="220" y1="230" x2="250" y2="230" stroke="#4cc9f0" stroke-width="1" />
    <line x1="250" y1="230" x2="280" y2="230" stroke="#4cc9f0" stroke-width="1" />
  </g>
</svg>